<?xml version="1.0" encoding="UTF-8" standalone="no"?>
<!-- Created with Inkscape (http://www.inkscape.org/) -->

<svg
   id="svg3253"
   viewBox="0 0 128 128"
   version="1.0"
   width="128"
   height="128"
   xmlns="http://www.w3.org/2000/svg"
   xmlns:svg="http://www.w3.org/2000/svg"
   xmlns:rdf="http://www.w3.org/1999/02/22-rdf-syntax-ns#">
  <defs
     id="defs12" />
  <g
     id="layer1">
    <path
       id="path3912"
       style="fill:#008080;fill-rule:evenodd;stroke:#000000;stroke-width:6;stroke-linecap:round;stroke-linejoin:round"
       d="M 64.188,5.3125 C 58.791,5.3938 53.29,6.3514 47.594,8.8438 37.777,13.139 34.04,18.369 31.312,23.8118 c -6.538,-0.307 -13.468,2.455 -18.218,7.938 -7.3948,8.534 -6.7113,20.389 1.531,26.438 2.24,1.644 4.798,2.641 7.5,3.124 -1.063,4.28 -0.91,8.757 0.187,13.219 -0.158,0.044 -0.31,0.076 -0.468,0.125 -6.958,2.178 -10.97,9.256 -8.938,15.75 0.747,2.386 2.204,4.346 4.094,5.782 1.73,1.79 4.454,2.466 7.125,1.5 3.388,-1.226 5.531,-4.662 5.25,-8.063 4.838,7.044 11.348,13.245 17.969,17.565 -3.132,2.04 -5.007,4.69 -4.938,7.56 0.045,1.87 0.5,4.28 2.406,5.16 5.356,2.46 12.173,2.75 18.907,2.68 6.644,-0.07 13.36,-0.49 18.562,-3.03 1.833,-0.89 2.139,-3.3 2.094,-5.15 -0.013,-0.55 -0.101,-1.1 -0.25,-1.63 3.256,-0.79 6.06,-1.98 8.344,-3.53 4.213,3.86 10.941,4.27 16.151,0.66 6,-4.15 7.72,-12.064 3.85,-17.66 -3.11,-4.492 -8.87,-6.111 -14.126,-4.438 -1.317,-4.594 -3.729,-9.761 -7.406,-15.5 -8.605,-13.428 -28.229,-23.563 -43.969,-25.531 0.719,-2.053 1.093,-4.161 1.093,-6.219 10.581,1.08 21.879,1.693 38.594,-0.906 5.763,-0.896 7.759,-2.691 2,-7.031 -7.125,-5.37 -15.153,-9.126 -25.437,-8.906 5.516,-2.421 10.784,-5.283 15.25,-8.375 C 84.294,11.3098 86.226,8.0292 76.625,6.406 72.497,5.7082 68.385,5.249 64.188,5.3123 Z" />
    <path
       id="path3782"
       style="fill:#cccccc;fill-rule:evenodd"
       d="M 64.188,5.3125 C 58.791,5.3938 53.29,6.3514 47.594,8.8438 37.777,13.139 34.04,18.369 31.312,23.8118 c -6.538,-0.307 -13.468,2.455 -18.218,7.938 -7.3948,8.534 -6.7113,20.389 1.531,26.438 2.24,1.644 4.798,2.641 7.5,3.124 -1.063,4.28 -0.91,8.757 0.187,13.219 -0.158,0.044 -0.31,0.076 -0.468,0.125 -6.958,2.178 -10.97,9.256 -8.938,15.75 0.747,2.386 2.204,4.346 4.094,5.782 1.73,1.79 4.454,2.466 7.125,1.5 3.388,-1.226 5.531,-4.662 5.25,-8.063 4.838,7.044 11.348,13.245 17.969,17.565 -3.132,2.04 -5.007,4.69 -4.938,7.56 0.045,1.87 0.5,4.28 2.406,5.16 5.356,2.46 12.173,2.75 18.907,2.68 6.644,-0.07 13.36,-0.49 18.562,-3.03 1.833,-0.89 2.139,-3.3 2.094,-5.15 -0.013,-0.55 -0.101,-1.1 -0.25,-1.63 3.256,-0.79 6.06,-1.98 8.344,-3.53 4.213,3.86 10.941,4.27 16.151,0.66 6,-4.15 7.72,-12.064 3.85,-17.66 -3.11,-4.492 -8.87,-6.111 -14.126,-4.438 -1.317,-4.594 -3.729,-9.761 -7.406,-15.5 -8.605,-13.428 -28.229,-23.563 -43.969,-25.531 0.719,-2.053 1.093,-4.161 1.093,-6.219 10.581,1.08 21.879,1.693 38.594,-0.906 5.763,-0.896 7.759,-2.691 2,-7.031 -7.125,-5.37 -15.153,-9.126 -25.437,-8.906 5.516,-2.421 10.784,-5.283 15.25,-8.375 C 84.294,11.3098 86.226,8.0292 76.625,6.406 72.497,5.7082 68.385,5.249 64.188,5.3123 Z" />
    <path
       id="path3927"
       style="fill:#000000;fill-rule:evenodd"
       transform="matrix(2,0,0,2,-28.211,-37.658)"
       cx="26.195747"
       cy="37.154488"
       rx="1.6792146"
       ry="1.5112932" />
    <path
       id="path3929"
       style="fill:none;stroke:#000000;stroke-width:3;stroke-linecap:round;stroke-linejoin:round"
       d="m 41.309,112.22 c 2.741,-8.74 11.136,-8.26 19.479,-7.06 C 57.941,101.18 56.135,97.978 56.422,90.721 56.819,80.674 68.545,74.908 75.9,79.303" />
  </g>
  <metadata
     id="metadata9">
    <rdf:RDF />
  </metadata>
</svg>
